<?xml version="1.0" standalone="no"?>
<!DOCTYPE svg PUBLIC "-//W3C//DTD SVG 20010904//EN"
 "http://www.w3.org/TR/2001/REC-SVG-20010904/DTD/svg10.dtd">
<svg version="1.0" xmlns="http://www.w3.org/2000/svg"
 width="800.000000pt" height="800.000000pt" viewBox="0 0 800.000000 800.000000"
 preserveAspectRatio="xMidYMid meet">
<metadata>
Created by potrace 1.11, written by Peter Selinger 2001-2013
</metadata>
<g transform="translate(0.000000,800.000000) scale(0.100000,-0.100000)"
fill="#000000" stroke="none">
<path d="M2137 7279 c-148 -51 -252 -163 -292 -314 -12 -49 -15 -136 -15 -496
0 -483 5 -449 -65 -449 -94 0 -241 -75 -326 -166 -100 -108 -142 -214 -143
-364 -1 -123 21 -201 83 -297 56 -86 121 -138 294 -236 l157 -88 0 -46 0 -45
-67 8 c-110 14 -214 9 -286 -15 -222 -74 -367 -278 -367 -516 0 -183 77 -334
224 -436 85 -60 145 -79 344 -110 91 -14 152 -28 152 -35 0 -7 -54 -20 -134
-32 -156 -25 -217 -47 -303 -108 -233 -166 -288 -492 -126 -736 108 -163 278
-247 475 -235 l87 6 3 -467 c3 -457 3 -468 25 -522 75 -183 232 -290 427 -290
l84 0 31 -92 c16 -51 57 -190 91 -308 77 -272 102 -329 164 -365 93 -55 213
-18 257 79 26 57 24 88 -11 192 -17 49 -53 168 -80 264 -26 96 -53 187 -59
202 l-11 28 818 0 c916 0 854 -5 916 73 28 35 31 46 31 107 0 61 -3 72 -30
106 -17 20 -46 45 -65 55 -33 18 -82 19 -1103 19 l-1068 0 -24 25 -25 24 0
2596 0 2596 25 24 24 25 1451 0 c1084 0 1457 -3 1473 -12 12 -6 27 -18 34 -27
10 -12 12 -339 13 -1452 l0 -1436 -61 -7 c-34 -3 -75 -6 -90 -6 l-29 0 0 1228
c-1 979 -3 1232 -14 1250 -7 13 -26 32 -42 43 -28 18 -60 19 -1274 19 -1231 0
-1245 0 -1278 -20 -67 -41 -62 115 -62 -2120 0 -2207 -4 -2072 55 -2118 l28
-22 999 0 c948 0 1000 -1 993 -17 -32 -85 -56 -193 -51 -237 16 -142 187 -212
296 -120 38 33 49 53 66 126 30 128 100 230 299 438 226 236 261 297 253 439
-10 160 -108 261 -306 312 -41 10 -98 19 -126 19 -72 0 -121 16 -163 53 -69
61 -89 145 -54 223 34 74 110 104 339 131 215 25 689 25 826 0 257 -48 410
-136 472 -271 34 -74 41 -180 25 -367 -58 -665 -341 -1347 -774 -1869 -39 -47
-131 -145 -204 -218 -106 -107 -135 -141 -144 -174 -40 -150 120 -280 259
-209 48 25 246 222 359 357 549 659 894 1580 871 2326 -4 134 -8 163 -33 237
-79 234 -267 401 -554 492 l-74 24 -223 287 -224 286 -2 1224 -3 1223 -32 68
c-44 93 -119 169 -212 215 l-75 37 -1530 2 c-1512 2 -1532 2 -1589 -18z m2663
-2147 l0 -1167 -75 -17 c-271 -62 -445 -268 -445 -528 0 -306 256 -559 564
-560 93 0 92 -3 -80 -189 l-159 -171 -992 0 -993 0 0 1900 0 1900 1090 0 1090
0 0 -1168z m-2970 342 l0 -186 -47 27 c-94 54 -123 95 -123 172 0 31 8 62 23
88 24 42 86 85 125 85 l22 0 0 -186z m-29 -1061 l29 -5 0 -178 0 -177 -112 19
c-153 25 -152 25 -187 53 -66 56 -78 172 -23 236 51 62 77 71 175 64 49 -3
102 -8 118 -12z m29 -1298 c0 -96 -3 -175 -7 -175 -5 0 -34 -4 -65 -9 -70 -12
-117 0 -163 40 -81 71 -72 205 18 272 24 19 127 43 190 46 l27 1 0 -175z"/>
<path d="M2900 5400 l0 -360 360 0 360 0 0 360 0 360 -360 0 -360 0 0 -360z
m588 3 l-3 -228 -225 0 -225 0 -3 228 -2 227 230 0 230 0 -2 -227z"/>
<path d="M3150 5405 l0 -105 110 0 110 0 0 105 0 105 -110 0 -110 0 0 -105z"/>
<path d="M3800 5400 l0 -360 360 0 360 0 0 360 0 360 -360 0 -360 0 0 -360z
m588 3 l-3 -228 -227 -3 -228 -2 0 230 0 230 230 0 230 0 -2 -227z"/>
<path d="M4050 5405 l0 -105 105 0 105 0 0 105 0 105 -105 0 -105 0 0 -105z"/>
<path d="M2900 4545 l0 -365 360 0 360 0 0 365 0 365 -360 0 -360 0 0 -365z
m590 0 l0 -225 -230 0 -230 0 0 225 0 225 230 0 230 0 0 -225z"/>
<path d="M3150 4545 l0 -105 110 0 110 0 0 105 0 105 -110 0 -110 0 0 -105z"/>
<path d="M4050 4760 l0 -110 -105 0 -105 0 0 -105 0 -105 105 0 105 0 0 -110
0 -110 215 0 215 0 0 215 0 214 -107 3 -108 3 -3 108 -3 107 -104 0 -105 0 0
-110z m210 -215 l0 -105 -105 0 -105 0 0 105 0 105 105 0 105 0 0 -105z"/>
<path d="M3379 6835 c-29 -16 -59 -70 -59 -108 0 -31 38 -88 70 -104 39 -20
601 -18 639 1 41 22 61 59 61 112 0 39 -5 51 -34 80 l-34 34 -308 0 c-248 -1
-314 -4 -335 -15z"/>
</g>
</svg>
