<?xml version="1.0" encoding="utf-8"?>
<!-- Generator: Adobe Illustrator 15.0.0, SVG Export Plug-In . SVG Version: 6.00 Build 0)  -->
<!DOCTYPE svg PUBLIC "-//W3C//DTD SVG 1.1//EN" "http://www.w3.org/Graphics/SVG/1.1/DTD/svg11.dtd">
<svg version="1.1" id="Layer_1" xmlns="http://www.w3.org/2000/svg" xmlns:xlink="http://www.w3.org/1999/xlink" x="0px" y="0px"
	 width="700px" height="700px" viewBox="0 0 700 700" enable-background="new 0 0 700 700" xml:space="preserve">
<path fill="#010101" d="M392.758,417.667c16.572,39.458,31.639,23.596,52.972,35.596c20.958,11.789-46.972,28.404-46.143,81.524
	c0.154,9.898,5.316,18.914,15.1,20.353c9.855,1.626,18.929-5.306,20.377-15.103c2.54-17.133,19.171-34.14,32.536-47.803
	c11.146-11.384,19.95-20.396,22.429-30.953c2.399-10.287,0.287-20.12-5.956-27.737c-11.826-14.448-34.216-15.495-43.531-15.813
	c-5.164-1.063-9.659-3.885-12.76-8.07c-3.177-4.284-4.474-9.497-3.688-14.703c0.756-4.982,2.173-14.269,28.429-16.989l4.183-0.468
	c38.405-4.296,68.831-4.01,91.3,0.674c0.213,0.062,0.439,0.081,0.655,0.119c14.374,3.076,25.496,7.952,33.077,14.746
	c7.869,7.031,11.51,15.968,11.487,28.118c-0.161,84.876-43.425,180.316-107.632,237.487c-7.399,6.594-8.062,17.917-1.483,25.304
	c3.554,3.989,8.47,6.021,13.399,6.021c4.243,0,8.498-1.488,11.928-4.54c71.383-63.56,119.461-169.736,119.654-264.209
	c0.074-22.135-9.491-39.633-23.404-54.892c-23.096-25.328-87.463-28.539-87.463-28.539V54.212c0-24.377-19.837-44.212-44.235-44.212
	H187.602c-24.388,0-44.212,19.835-44.212,44.212v83.515c-4.959-0.021-9.938,0.419-14.867,1.837
	c-13.601,3.888-24.967,12.855-31.987,25.233c-7.031,12.387-8.929,26.724-5.317,40.395c3.644,13.817,12.449,25.295,24.764,32.264
	l27.396,15.58v9.572l-7.612-0.766c-13.286-3.041-26.988-0.867-38.783,6.255c-12.112,7.295-20.765,18.906-24.335,32.692
	c-7.408,28.602,9.499,57.805,37.68,65.11c0.541,0.149,1.083,0.256,1.633,0.337l31.416,5.101v2.665l-21.856,3.356
	c-28.733,4.814-48.15,32.416-43.282,61.549c4.387,26.212,26.978,44.864,52.159,44.864c2.786,0,5.614-0.224,8.459-0.698l4.52-0.66
	v84.342c0,24.381,19.835,44.223,44.212,44.223h9.49c4.908,13.751,8.163,25.509,11.049,36.059c2.98,10.968,5.797,21.324,9.929,31.668
	C220.855,685.722,227.6,690,234.721,690c2.214,0,4.459-0.418,6.633-1.277c9.203-3.661,13.682-14.111,10.02-23.302
	c-3.368-8.44-5.817-17.42-8.642-27.808c-2.194-8.071-4.654-16.866-7.786-26.637h158.97c9.907,0,17.926-8.033,17.926-17.929
	c0-9.908-8.019-17.937-17.926-17.937H187.602c-4.613,0-8.347-3.749-8.347-8.357V54.232c0-4.591,3.745-8.335,8.347-8.335h286.387
	c4.613,0,8.367,3.745,8.367,8.335v284.992c-6.845,0.398-48.265,2.443-65.598,10.776S378.758,384.334,392.758,417.667z
	 M133.707,206.264c-3.866-2.204-6.643-5.827-7.806-10.236c-1.203-4.55-0.561-9.345,1.826-13.538
	c2.367-4.163,6.153-7.163,10.664-8.458c1.663-0.48,3.326-0.46,4.989-0.429v38.161L133.707,206.264z M143.39,446.148l-10.102,1.489
	c-9.184,1.595-18.051-5.032-19.662-14.66c-1.613-9.623,4.602-18.715,13.602-20.216l16.162-2.49V446.148z M143.39,334.99
	l-24.713-4.011c-8.643-2.622-13.694-11.988-11.296-21.212c1.204-4.632,4.083-8.529,8.103-10.948
	c3.907-2.357,8.448-3.061,12.744-1.907c0.887,0.213,1.796,0.388,2.713,0.479l12.449,1.255V334.99z"/>
</svg>
